<mxfile host="app.diagrams.net" agent="Mozilla/5.0 (Macintosh; Intel Mac OS X 10_15_7) AppleWebKit/537.36 (KHTML, like Gecko) Chrome/136.0.0.0 Safari/537.36 Edg/136.0.0.0" version="27.0.9">
  <diagram name="第 1 页" id="OwCT-_T3C1dJWBLOQdEe">
    <mxGraphModel dx="1815" dy="1154" grid="1" gridSize="10" guides="1" tooltips="1" connect="1" arrows="1" fold="1" page="1" pageScale="1" pageWidth="827" pageHeight="1169" math="0" shadow="0">
      <root>
        <mxCell id="0" />
        <mxCell id="1" parent="0" />
        <mxCell id="LkiMEmtgf_W3G0hWNR_P-18" value="渠道服务" style="rounded=0;whiteSpace=wrap;html=1;fillColor=#e1d5e7;strokeColor=#9673a6;fontFamily=Helvetica;labelBackgroundColor=none;fontSize=12;verticalAlign=top;" vertex="1" parent="1">
          <mxGeometry x="830" y="320" width="710" height="185" as="geometry" />
        </mxCell>
        <mxCell id="LkiMEmtgf_W3G0hWNR_P-15" value="渠道服务" style="rounded=0;whiteSpace=wrap;html=1;fillColor=#e1d5e7;strokeColor=#9673a6;fontFamily=Helvetica;labelBackgroundColor=none;fontSize=12;verticalAlign=top;" vertex="1" parent="1">
          <mxGeometry x="107" y="322.5" width="653" height="77.5" as="geometry" />
        </mxCell>
        <mxCell id="LkiMEmtgf_W3G0hWNR_P-1" value="&lt;div&gt;RS门店&amp;amp;优惠券&lt;/div&gt;rs-service" style="rounded=0;whiteSpace=wrap;html=1;fillColor=#fff2cc;strokeColor=#d6b656;fontFamily=Helvetica;labelBackgroundColor=none;fontSize=12;" vertex="1" parent="1">
          <mxGeometry x="230" y="352.5" width="90" height="35" as="geometry" />
        </mxCell>
        <mxCell id="LkiMEmtgf_W3G0hWNR_P-2" value="&lt;div&gt;RS旧服务&lt;/div&gt;ruigu-crm" style="rounded=0;whiteSpace=wrap;html=1;fillColor=#fff2cc;strokeColor=#d6b656;fontFamily=Helvetica;labelBackgroundColor=none;fontSize=12;" vertex="1" parent="1">
          <mxGeometry x="120" y="352.5" width="90" height="35" as="geometry" />
        </mxCell>
        <mxCell id="LkiMEmtgf_W3G0hWNR_P-3" value="&lt;div&gt;旧企拍服务&lt;/div&gt;crm-rp" style="rounded=0;whiteSpace=wrap;html=1;fillColor=#fff2cc;strokeColor=#d6b656;fontFamily=Helvetica;labelBackgroundColor=none;fontSize=12;" vertex="1" parent="1">
          <mxGeometry x="540" y="352.5" width="90" height="35" as="geometry" />
        </mxCell>
        <mxCell id="LkiMEmtgf_W3G0hWNR_P-4" value="&lt;div&gt;RS基础服务&lt;/div&gt;crm-api" style="rounded=0;whiteSpace=wrap;html=1;fillColor=#fff2cc;strokeColor=#d6b656;fontFamily=Helvetica;labelBackgroundColor=none;fontSize=12;" vertex="1" parent="1">
          <mxGeometry x="340" y="352.5" width="80" height="40" as="geometry" />
        </mxCell>
        <mxCell id="LkiMEmtgf_W3G0hWNR_P-5" value="&lt;p&gt;Duang &amp;amp; 蜂窝&lt;span style=&quot;background-color: transparent; color: light-dark(rgb(0, 0, 0), rgb(255, 255, 255));&quot;&gt;rs-java&lt;/span&gt;&lt;/p&gt;" style="rounded=0;whiteSpace=wrap;html=1;fillColor=#fff2cc;strokeColor=#d6b656;align=center;verticalAlign=middle;fontFamily=Helvetica;fontSize=12;fontColor=default;labelBackgroundColor=none;" vertex="1" parent="1">
          <mxGeometry x="660" y="350" width="90" height="40" as="geometry" />
        </mxCell>
        <mxCell id="LkiMEmtgf_W3G0hWNR_P-12" value="&lt;p&gt;Duang &amp;amp; 蜂窝&lt;/p&gt;&lt;p&gt;&lt;span style=&quot;background-color: transparent; color: light-dark(rgb(0, 0, 0), rgb(255, 255, 255));&quot;&gt;rs-java&lt;/span&gt;&lt;/p&gt;" style="rounded=0;whiteSpace=wrap;html=1;fillColor=#fff2cc;strokeColor=#d6b656;align=center;verticalAlign=middle;fontFamily=Helvetica;fontSize=12;fontColor=default;labelBackgroundColor=none;" vertex="1" parent="1">
          <mxGeometry x="1420" y="387" width="90" height="40" as="geometry" />
        </mxCell>
        <mxCell id="LkiMEmtgf_W3G0hWNR_P-13" value="&lt;div&gt;RS后台接口&lt;/div&gt;rs-api" style="rounded=0;whiteSpace=wrap;html=1;fillColor=#fff2cc;strokeColor=#d6b656;fontFamily=Helvetica;labelBackgroundColor=none;fontSize=12;" vertex="1" parent="1">
          <mxGeometry x="440" y="352.5" width="80" height="40" as="geometry" />
        </mxCell>
        <mxCell id="LkiMEmtgf_W3G0hWNR_P-58" value="" style="group" vertex="1" connectable="0" parent="1">
          <mxGeometry x="850" y="385" width="300" height="97" as="geometry" />
        </mxCell>
        <mxCell id="nSBeGys0wyZdENIuT4dJ-60" value="渠道外部查询服务" style="rounded=0;whiteSpace=wrap;html=1;fillColor=#f8cecc;strokeColor=#b85450;fontFamily=Helvetica;labelBackgroundColor=none;fontSize=12;verticalAlign=top;" parent="LkiMEmtgf_W3G0hWNR_P-58" vertex="1">
          <mxGeometry width="300" height="97" as="geometry" />
        </mxCell>
        <mxCell id="nSBeGys0wyZdENIuT4dJ-64" value="" style="group" parent="LkiMEmtgf_W3G0hWNR_P-58" vertex="1" connectable="0">
          <mxGeometry x="10" y="23" width="180" height="30" as="geometry" />
        </mxCell>
        <mxCell id="nSBeGys0wyZdENIuT4dJ-65" value="&lt;p&gt;组与销售关系&lt;/p&gt;" style="rounded=0;whiteSpace=wrap;html=1;fillColor=#fff2cc;strokeColor=#d6b656;align=center;verticalAlign=middle;fontFamily=Helvetica;fontSize=12;fontColor=default;labelBackgroundColor=none;" parent="nSBeGys0wyZdENIuT4dJ-64" vertex="1">
          <mxGeometry x="100" width="80" height="30" as="geometry" />
        </mxCell>
        <mxCell id="nSBeGys0wyZdENIuT4dJ-66" value="组织架构" style="rounded=0;whiteSpace=wrap;html=1;fillColor=#fff2cc;strokeColor=#d6b656;fontFamily=Helvetica;labelBackgroundColor=none;fontSize=12;" parent="nSBeGys0wyZdENIuT4dJ-64" vertex="1">
          <mxGeometry width="90" height="30" as="geometry" />
        </mxCell>
        <mxCell id="nSBeGys0wyZdENIuT4dJ-67" value="" style="group" parent="LkiMEmtgf_W3G0hWNR_P-58" vertex="1" connectable="0">
          <mxGeometry x="10" y="63" width="180" height="30" as="geometry" />
        </mxCell>
        <mxCell id="nSBeGys0wyZdENIuT4dJ-68" value="&lt;p&gt;销售信息&lt;/p&gt;" style="rounded=0;whiteSpace=wrap;html=1;fillColor=#fff2cc;strokeColor=#d6b656;align=center;verticalAlign=middle;fontFamily=Helvetica;fontSize=12;fontColor=default;labelBackgroundColor=none;" parent="nSBeGys0wyZdENIuT4dJ-67" vertex="1">
          <mxGeometry x="100" width="80" height="30" as="geometry" />
        </mxCell>
        <mxCell id="nSBeGys0wyZdENIuT4dJ-69" value="企拍信息" style="rounded=0;whiteSpace=wrap;html=1;fillColor=#fff2cc;strokeColor=#d6b656;fontFamily=Helvetica;labelBackgroundColor=none;fontSize=12;" parent="nSBeGys0wyZdENIuT4dJ-67" vertex="1">
          <mxGeometry width="90" height="30" as="geometry" />
        </mxCell>
        <mxCell id="nSBeGys0wyZdENIuT4dJ-70" value="等等等" style="rounded=0;whiteSpace=wrap;html=1;fillColor=#fff2cc;strokeColor=#d6b656;fontFamily=Helvetica;labelBackgroundColor=none;fontSize=12;" parent="LkiMEmtgf_W3G0hWNR_P-58" vertex="1">
          <mxGeometry x="197.5" y="21.25" width="90" height="30" as="geometry" />
        </mxCell>
        <mxCell id="LkiMEmtgf_W3G0hWNR_P-59" value="" style="group" vertex="1" connectable="0" parent="1">
          <mxGeometry x="1180" y="387" width="220" height="70" as="geometry" />
        </mxCell>
        <mxCell id="LkiMEmtgf_W3G0hWNR_P-7" value="门店公共服务" style="rounded=0;whiteSpace=wrap;html=1;fillColor=#f8cecc;strokeColor=#b85450;fontFamily=Helvetica;labelBackgroundColor=none;fontSize=12;verticalAlign=top;container=0;" vertex="1" parent="LkiMEmtgf_W3G0hWNR_P-59">
          <mxGeometry width="220" height="70" as="geometry" />
        </mxCell>
        <mxCell id="LkiMEmtgf_W3G0hWNR_P-10" value="&lt;div&gt;RS门店&lt;/div&gt;rs-service" style="rounded=0;whiteSpace=wrap;html=1;fillColor=#fff2cc;strokeColor=#d6b656;fontFamily=Helvetica;labelBackgroundColor=none;fontSize=12;container=0;" vertex="1" parent="LkiMEmtgf_W3G0hWNR_P-59">
          <mxGeometry x="11" y="29.99544715447155" width="90" height="30" as="geometry" />
        </mxCell>
        <mxCell id="LkiMEmtgf_W3G0hWNR_P-9" value="&lt;p&gt;&lt;span&gt;&lt;span&gt;用户画像&lt;br&gt;&lt;/span&gt;&lt;/span&gt;&lt;span&gt;rbox-portrait&lt;/span&gt;&lt;span&gt;&lt;/span&gt;&lt;/p&gt;" style="rounded=0;whiteSpace=wrap;html=1;fillColor=#fff2cc;strokeColor=#d6b656;align=center;verticalAlign=middle;fontFamily=Helvetica;fontSize=12;fontColor=default;labelBackgroundColor=none;container=0;" vertex="1" parent="LkiMEmtgf_W3G0hWNR_P-59">
          <mxGeometry x="110" y="29.99544715447155" width="90" height="30" as="geometry" />
        </mxCell>
        <mxCell id="LkiMEmtgf_W3G0hWNR_P-67" style="rounded=0;orthogonalLoop=1;jettySize=auto;html=1;exitX=0.5;exitY=1;exitDx=0;exitDy=0;entryX=0.5;entryY=0;entryDx=0;entryDy=0;endArrow=none;startFill=0;" edge="1" parent="1" source="LkiMEmtgf_W3G0hWNR_P-60" target="LkiMEmtgf_W3G0hWNR_P-15">
          <mxGeometry relative="1" as="geometry" />
        </mxCell>
        <mxCell id="LkiMEmtgf_W3G0hWNR_P-60" value="用户" style="ellipse;whiteSpace=wrap;html=1;aspect=fixed;" vertex="1" parent="1">
          <mxGeometry x="210" y="200" width="60" height="60" as="geometry" />
        </mxCell>
        <mxCell id="LkiMEmtgf_W3G0hWNR_P-70" style="rounded=0;orthogonalLoop=1;jettySize=auto;html=1;endArrow=none;startFill=0;" edge="1" parent="1" source="LkiMEmtgf_W3G0hWNR_P-62">
          <mxGeometry relative="1" as="geometry">
            <mxPoint x="430" y="320" as="targetPoint" />
          </mxGeometry>
        </mxCell>
        <mxCell id="LkiMEmtgf_W3G0hWNR_P-62" value="售后" style="ellipse;whiteSpace=wrap;html=1;aspect=fixed;" vertex="1" parent="1">
          <mxGeometry x="293" y="200" width="60" height="60" as="geometry" />
        </mxCell>
        <mxCell id="LkiMEmtgf_W3G0hWNR_P-63" value="履约" style="ellipse;whiteSpace=wrap;html=1;aspect=fixed;" vertex="1" parent="1">
          <mxGeometry x="373" y="200" width="60" height="60" as="geometry" />
        </mxCell>
        <mxCell id="LkiMEmtgf_W3G0hWNR_P-72" style="rounded=0;orthogonalLoop=1;jettySize=auto;html=1;entryX=0.492;entryY=0.032;entryDx=0;entryDy=0;endArrow=none;startFill=0;entryPerimeter=0;" edge="1" parent="1" source="LkiMEmtgf_W3G0hWNR_P-64" target="LkiMEmtgf_W3G0hWNR_P-15">
          <mxGeometry relative="1" as="geometry" />
        </mxCell>
        <mxCell id="LkiMEmtgf_W3G0hWNR_P-64" value="店铺" style="ellipse;whiteSpace=wrap;html=1;aspect=fixed;" vertex="1" parent="1">
          <mxGeometry x="453" y="200" width="60" height="60" as="geometry" />
        </mxCell>
        <mxCell id="LkiMEmtgf_W3G0hWNR_P-73" style="rounded=0;orthogonalLoop=1;jettySize=auto;html=1;endArrow=none;startFill=0;entryX=0.5;entryY=0;entryDx=0;entryDy=0;" edge="1" parent="1" source="LkiMEmtgf_W3G0hWNR_P-65" target="LkiMEmtgf_W3G0hWNR_P-15">
          <mxGeometry relative="1" as="geometry" />
        </mxCell>
        <mxCell id="LkiMEmtgf_W3G0hWNR_P-65" value="业财" style="ellipse;whiteSpace=wrap;html=1;aspect=fixed;" vertex="1" parent="1">
          <mxGeometry x="533" y="200" width="60" height="60" as="geometry" />
        </mxCell>
        <mxCell id="LkiMEmtgf_W3G0hWNR_P-74" style="rounded=0;orthogonalLoop=1;jettySize=auto;html=1;entryX=0.492;entryY=0.032;entryDx=0;entryDy=0;entryPerimeter=0;endArrow=none;startFill=0;" edge="1" parent="1" source="LkiMEmtgf_W3G0hWNR_P-63" target="LkiMEmtgf_W3G0hWNR_P-15">
          <mxGeometry relative="1" as="geometry" />
        </mxCell>
        <mxCell id="LkiMEmtgf_W3G0hWNR_P-80" style="rounded=0;orthogonalLoop=1;jettySize=auto;html=1;exitX=0.5;exitY=1;exitDx=0;exitDy=0;entryX=0.5;entryY=0;entryDx=0;entryDy=0;endArrow=none;startFill=0;" edge="1" parent="1" source="LkiMEmtgf_W3G0hWNR_P-81">
          <mxGeometry relative="1" as="geometry">
            <mxPoint x="1184" y="318" as="targetPoint" />
          </mxGeometry>
        </mxCell>
        <mxCell id="LkiMEmtgf_W3G0hWNR_P-81" value="用户" style="ellipse;whiteSpace=wrap;html=1;aspect=fixed;" vertex="1" parent="1">
          <mxGeometry x="960" y="195" width="60" height="60" as="geometry" />
        </mxCell>
        <mxCell id="LkiMEmtgf_W3G0hWNR_P-82" style="rounded=0;orthogonalLoop=1;jettySize=auto;html=1;endArrow=none;startFill=0;" edge="1" parent="1" source="LkiMEmtgf_W3G0hWNR_P-83">
          <mxGeometry relative="1" as="geometry">
            <mxPoint x="1180" y="315" as="targetPoint" />
          </mxGeometry>
        </mxCell>
        <mxCell id="LkiMEmtgf_W3G0hWNR_P-83" value="售后" style="ellipse;whiteSpace=wrap;html=1;aspect=fixed;" vertex="1" parent="1">
          <mxGeometry x="1043" y="195" width="60" height="60" as="geometry" />
        </mxCell>
        <mxCell id="LkiMEmtgf_W3G0hWNR_P-84" value="履约" style="ellipse;whiteSpace=wrap;html=1;aspect=fixed;" vertex="1" parent="1">
          <mxGeometry x="1123" y="195" width="60" height="60" as="geometry" />
        </mxCell>
        <mxCell id="LkiMEmtgf_W3G0hWNR_P-85" style="rounded=0;orthogonalLoop=1;jettySize=auto;html=1;entryX=0.492;entryY=0.032;entryDx=0;entryDy=0;endArrow=none;startFill=0;entryPerimeter=0;" edge="1" parent="1" source="LkiMEmtgf_W3G0hWNR_P-86">
          <mxGeometry relative="1" as="geometry">
            <mxPoint x="1178" y="320" as="targetPoint" />
          </mxGeometry>
        </mxCell>
        <mxCell id="LkiMEmtgf_W3G0hWNR_P-86" value="店铺" style="ellipse;whiteSpace=wrap;html=1;aspect=fixed;" vertex="1" parent="1">
          <mxGeometry x="1203" y="195" width="60" height="60" as="geometry" />
        </mxCell>
        <mxCell id="LkiMEmtgf_W3G0hWNR_P-87" style="rounded=0;orthogonalLoop=1;jettySize=auto;html=1;endArrow=none;startFill=0;entryX=0.5;entryY=0;entryDx=0;entryDy=0;" edge="1" parent="1" source="LkiMEmtgf_W3G0hWNR_P-88">
          <mxGeometry relative="1" as="geometry">
            <mxPoint x="1184" y="318" as="targetPoint" />
          </mxGeometry>
        </mxCell>
        <mxCell id="LkiMEmtgf_W3G0hWNR_P-88" value="业财" style="ellipse;whiteSpace=wrap;html=1;aspect=fixed;" vertex="1" parent="1">
          <mxGeometry x="1283" y="195" width="60" height="60" as="geometry" />
        </mxCell>
        <mxCell id="LkiMEmtgf_W3G0hWNR_P-89" style="rounded=0;orthogonalLoop=1;jettySize=auto;html=1;entryX=0.492;entryY=0.032;entryDx=0;entryDy=0;entryPerimeter=0;endArrow=none;startFill=0;" edge="1" parent="1" source="LkiMEmtgf_W3G0hWNR_P-84">
          <mxGeometry relative="1" as="geometry">
            <mxPoint x="1178" y="320" as="targetPoint" />
          </mxGeometry>
        </mxCell>
      </root>
    </mxGraphModel>
  </diagram>
</mxfile>
